<svg xmlns="http://www.w3.org/2000/svg" fill="none" viewBox="0 0 24 24" stroke-width="1.5" stroke="#ffffff" aria-hidden="true" data-slot="icon">
  <path stroke-linecap="round" stroke-linejoin="round" d="M4.5 12a7.5 7.5 0 0 1 15 0v4.125a1.875 1.875 0 0 1-1.875 1.875H16.5a.75.75 0 0 1-.75-.75v-4.5a.75.75 0 0 1 .75-.75h3"/>
  <path stroke-linecap="round" stroke-linejoin="round" d="M4.5 12H7.5a.75.75 0 0 1 .75.75v4.5a.75.75 0 0 1-.75.75H6.375A1.875 1.875 0 0 1 4.5 16.125V12Z"/>
  <path stroke-linecap="round" stroke-linejoin="round" d="M9.75 18.75a2.25 2.25 0 0 0 2.25 2.25h1.5"/>
  <circle cx="13.5" cy="21" r=".75" fill="#ffffff"/>
</svg>
